<?xml version="1.0" encoding="utf-8"?>
<!-- Generator: Adobe Illustrator 16.0.0, SVG Export Plug-In . SVG Version: 6.00 Build 0)  -->
<!DOCTYPE svg PUBLIC "-//W3C//DTD SVG 1.1//EN" "http://www.w3.org/Graphics/SVG/1.1/DTD/svg11.dtd">
<svg version="1.1" id="Layer_1" xmlns="http://www.w3.org/2000/svg" xmlns:xlink="http://www.w3.org/1999/xlink" x="0px" y="0px"
	 width="1100px" height="1000px" viewBox="0 0 1100 1000" enable-background="new 0 0 1100 1000" xml:space="preserve">
<g>
	<path fill-rule="evenodd" clip-rule="evenodd" fill="#05A451" d="M765.499,667.728c-16.831,19.285-28.596,42.253-43.496,62.974
		c-59.268,82.42-127.41,155.354-212.86,209.523c-41.406,26.245-85.115,47.542-133.842,55.976
		c-105.124,18.198-182.678-29.279-214.979-135.862c-18.306-60.407-16.829-122.3-9.555-184.322c0.654-5.571,0.792-11.206,1.17-16.81
		c21.16-19.696,34.797-44.059,44.253-71.594c15.455-44.997,32.057-89.579,48.018-134.389c11.873-33.329,23.32-66.816,35.358-100.079
		c3.037-8.392,1.343-12.508-7.446-13.129c63.714-107.718,142.035-201.709,245.107-271.946
		C563.977,36.213,618.63,8.335,667.561,2.213c24.073-3.012,46.931-2.678,59.836-0.62c65.073,10.376,108.919,41.521,137.64,99.546
		c19.23,38.86,25.705,80.845,28.296,123.84c2.449,40.59-2.678,80.663-6.5,120.853c-7.345-0.093-11.587,3.096-13.729,10.81
		c-2.854,10.279-7.17,20.121-10.679,30.213c-21.189,60.896-42.493,121.753-63.408,182.75
		C787.808,602.298,774.402,634.205,765.499,667.728z M320.445,425.329c-11.465,18.443-22.301,37.21-28.102,58.519
		c-6.403,0.267-12.946,1.529-19.178,0.594c-13.083-1.957-17.883,5.979-21.584,16.506c-10.683,30.378-21.581,60.676-32.358,91.022
		c-7.981,22.47-15.799,45.004-23.912,67.423c-3.22,8.893-0.075,12.166,8.571,12.141c10.074-0.03,20.15,0.37,30.225,0.582
		c-0.485,4.656-0.911,9.323-1.459,13.972c-5.253,44.445-7.976,88.918,1.709,133.083c9.49,43.265,27.473,80.104,73.495,92.814
		c24.564,6.784,49.165,3.221,73.024-3.994c34.438-10.414,66.024-27.391,95.887-47.611c75.137-50.884,134.63-118.009,187.895-191.527
		c23.811-0.078,47.624-0.368,71.433-0.119c7.244,0.074,12.444-1.649,14.905-9.224c4.016-12.36,8.154-24.679,12.399-36.956
		c15.231-44.012,30.386-88.057,45.842-131.988c15.43-43.874,31.264-87.604,46.745-131.46c3.145-8.891,0.041-12.999-9.665-12.754
		c-14.637,0.373-29.291-0.223-43.938-0.408c4.882-30.653,8.657-61.483,8.714-92.544c0.079-40.116-2.498-80.012-21.162-116.584
		c-23.614-46.272-53.686-55.249-95.964-52.385c-35.063,2.374-67.678,15.017-97.988,32.955
		C532.355,155.043,477.173,203.3,429.75,260.738c-20.962,25.389-42.72,50.283-58.492,79.733
		c-16.913,0.113-33.877,1.085-50.722,0.044c-11.598-0.718-16.191,4.847-19.563,14.761c-6.391,18.791-13.273,37.413-20.36,55.942
		c-3.431,8.98-1.427,13.587,8.298,13.723C299.423,425.084,309.934,425.201,320.445,425.329z"/>
	<path fill-rule="evenodd" clip-rule="evenodd" fill="#19359A" d="M2.902,544.253c2.139-10.003,42.46-125.554,62.756-188.646
		c3.907-12.147,9.197-15.669,21.186-15.078c22.291,1.093,44.668,0.313,68.745,0.313c-13.378,39.668-26.235,77.657-38.995,115.674
		c-10.839,32.294-21.645,64.606-32.248,96.98c-1.434,4.376-1.875,9.167-2.283,13.81c-0.71,8.113,3.96,12.861,10.254,16.745
		c6.149,3.797,11.684,1.763,16.709-1.695c9.19-6.316,13.712-16.08,17.18-26.484c22.271-66.869,44.835-133.636,66.623-200.67
		c3.632-11.177,8.558-15.23,20.201-14.686c19.646,0.919,39.386-0.224,59.086-0.5c8.792,0.622,10.486,4.737,7.449,13.129
		c-12.038,33.262-23.485,66.75-35.358,100.079c-15.961,44.811-32.563,89.392-48.018,134.389
		c-9.456,27.535-23.093,51.897-44.253,71.594c-17.532,9.797-34.514,18.848-56.071,18.585c-40.515-0.492-66.187-21.715-84.706-55.91
		C8.381,616.75,2.902,602.25,1.952,589C-0.9,568.75-0.663,562.75,2.902,544.253z"/>
	<path fill-rule="evenodd" clip-rule="evenodd" fill="#19359A" d="M765.499,667.728c8.903-33.522,22.309-65.43,33.517-98.124
		c20.915-60.996,42.219-121.854,63.408-182.75c3.509-10.092,7.824-19.934,10.679-30.213c2.143-7.714,6.385-10.903,13.729-10.81
		c39.448,0.266,78.986,2.326,118.336,0.39c63.425-3.122,108.602,74.38,90.996,128.205c-19.778,60.453-38.271,121.348-56.696,182.25
		c-2.761,9.123-6.013,12.734-15.718,12.231c-18.311-0.941-36.703-0.455-55.054-0.184c-7.385,0.109-10.883-0.461-7.933-10.04
		c18.622-60.409,36.499-121.059,54.941-181.525c2.514-8.246,3.942-16.407,3.717-24.935c-0.403-15.027-8.366-23.4-23.087-23.634
		c-16.977-0.271-33.999,0.685-50.923-0.33c-9.832-0.587-13.509,3.642-16.517,12.253c-25.108,71.948-50.75,143.695-75.703,215.69
		c-3.311,9.539-7.596,13.134-17.619,12.675C812.247,667.809,788.861,668.028,765.499,667.728z"/>
	<path fill-rule="evenodd" clip-rule="evenodd" fill="#19359A" d="M371.258,340.471c37.181,0.124,74.363,0.412,111.542,0.29
		c15.885-0.053,26.826-10.446,28.776-31.515c1.45-15.677,7.45-19.547,21.487-18.084c12.266,1.281,24.779,0.633,37.152,0.141
		c7.276-0.291,9.38,2.38,9.369,9.714c-0.04,25.745-7.63,48.318-26.628,65.5c-10.707,9.681-15.556,19.911-15.19,35.166
		c0.704,29.185-11.373,55.841-19.865,83.089c-18.345,58.881-36.946,117.674-55.014,176.645c-2.304,7.517-5.14,10.523-13.167,10.298
		c-22.021-0.623-44.074-0.498-66.104-0.078c-8.499,0.161-9.95-1.587-6.956-10.297c7.267-21.128,12.778-42.888,19.771-64.124
		c4.072-12.369,0.266-18.045-11.689-21.221c-16.91-4.487-33.586-4.194-50.422-0.674c-10.395,2.177-16.202,9.076-19.68,19.22
		c-7.737,22.554-16.393,44.778-23.981,67.382c-2.54,7.566-6.175,10.068-13.905,9.776c-14.19-0.525-28.424,0.2-42.643,0.41
		c-10.078-0.206-20.154-0.606-30.229-0.576c-8.646,0.025-11.791-3.248-8.571-12.141c8.113-22.419,15.93-44.953,23.912-67.423
		c10.778-30.346,21.676-60.644,32.358-91.022c3.701-10.527,8.501-18.463,21.584-16.506c6.232,0.936,12.774-0.327,19.187-0.59
		c29.762,0.237,59.519,0.59,89.274,0.643c12.757,0.021,25.577,1.063,38.209-2.229c13.684-3.565,27.257-22.479,25.444-35.99
		c-2.11-15.723-11.833-23.182-30.482-23.25c-8.701-0.033-17.417-0.221-26.102,0.213c-22.738,1.137-45.638-3.236-68.25,2.091
		c-10.511-0.128-21.022-0.245-31.533-0.388c-9.725-0.135-11.729-4.742-8.298-13.723c7.087-18.529,13.969-37.151,20.36-55.942
		c3.372-9.914,7.964-15.479,19.563-14.761C337.381,341.557,354.346,340.584,371.258,340.471z"/>
	<path fill-rule="evenodd" clip-rule="evenodd" fill="#19359A" d="M664.658,668.852c-22.072,2.877-35.931-10.045-48.005-26.333
		c-5.266-7.105-10.19-14.491-15.712-21.376c-6.284-7.829-11.734-8.296-15.558,2.581c-3.567,10.147-7.64,20.103-11.518,30.135
		c-4.71,12.185-12.772,18.4-26.246,17.813c-16.947-0.735-33.97-0.739-50.913,0.02c-11.537,0.52-12.857-3.128-9.317-13.719
		c24.001-71.803,47.467-143.795,71.139-215.712c9.507-28.878,19.279-57.667,28.551-86.623c2.781-8.679,6.745-12.737,16.588-12.199
		c18.763,1.024,37.609,0.292,56.42,0.307c16.079,0.014,15.798,0.063,11.032,15.404c-12.742,41.042-27.589,81.627-36.877,123.493
		c-7.934,35.788,4.067,69.479,26.494,98.017c8.604,10.954,20.352,8.229,26.664-6.862c8.241-19.694,14.214-40.407,20.816-60.798
		c16.28-50.293,32.598-100.577,48.346-151.043c3.552-11.37,8.59-17.295,21.126-15.577c8.065,1.103,16.44-0.202,24.686-0.432
		c14.651,0.18,29.306,0.775,43.942,0.403c9.706-0.245,12.81,3.863,9.665,12.754c-15.481,43.857-31.315,87.586-46.745,131.46
		c-15.456,43.931-30.61,87.976-45.842,131.988c-4.245,12.277-8.384,24.596-12.399,36.956c-2.461,7.574-7.661,9.298-14.905,9.224
		C712.282,668.483,688.469,668.773,664.658,668.852z"/>
</g>
</svg>
